<?xml version="1.0" encoding="UTF-8" standalone="no"?>
<!-- Created with Inkscape (http://www.inkscape.org/) -->

<svg
   width="64"
   height="64"
   viewBox="0 0 16.933333 16.933334"
   version="1.1"
   id="svg830"
   sodipodi:docname="wood-favicon.svg"
   inkscape:version="1.1.2 (0a00cf5339, 2022-02-04)"
   xmlns:inkscape="http://www.inkscape.org/namespaces/inkscape"
   xmlns:sodipodi="http://sodipodi.sourceforge.net/DTD/sodipodi-0.dtd"
   xmlns="http://www.w3.org/2000/svg"
   xmlns:svg="http://www.w3.org/2000/svg">
  <sodipodi:namedview
     id="namedview832"
     pagecolor="#ffffff"
     bordercolor="#666666"
     borderopacity="1.0"
     inkscape:pageshadow="2"
     inkscape:pageopacity="0.0"
     inkscape:pagecheckerboard="0"
     inkscape:document-units="mm"
     showgrid="false"
     units="px"
     inkscape:zoom="6.2217172"
     inkscape:cx="35.866132"
     inkscape:cy="69.238427"
     inkscape:window-width="2514"
     inkscape:window-height="1376"
     inkscape:window-x="0"
     inkscape:window-y="0"
     inkscape:window-maximized="1"
     inkscape:current-layer="layer1"
     inkscape:rotation="-1" />
  <defs
     id="defs827" />
  <g
     inkscape:label="Layer 1"
     inkscape:groupmode="layer"
     id="layer1">
    <circle
       style="fill:#ffffff;stroke:none;stroke-width:0.268488;stroke-linecap:round;stroke-linejoin:round;stop-color:#000000"
       id="path1248"
       cx="8.4666662"
       cy="8.4666662"
       r="8.4666662" />
    <path
       style="fill:#000000;stroke-width:0.0177998"
       d="m 6.4270988,51.347761 c -0.700641,-0.04022 -1.30174,-0.163308 -1.645561,-0.336862 -0.171583,-0.08657 -0.221317,-0.168803 -0.39693,-0.6558 -0.05348,-0.148318 -0.12081,-0.311655 -0.149613,-0.362947 -0.04805,-0.08556 -0.143323,-0.17336 -0.188141,-0.17336 -0.03849,0 -0.18686,0.178089 -0.339984,0.408111 -0.174224,0.261715 -0.288009,0.392885 -0.340807,0.392885 -0.04484,0 -0.5794204,-0.245735 -0.8916729,-0.409855 -0.3959118,-0.208117 -0.9926514,-0.543734 -1.6615343,-0.934484 -1.0701631,-0.625166 -1.1685011,-0.677465 -2.838745,-1.509576 -0.381805,-0.190207 -0.825442,-0.419178 -0.9858542,-0.508801 -0.7728806,-0.431817 -1.3592641,-0.86303 -1.912537,-1.406442 -0.2693778,-0.264587 -0.3157052,-0.316465 -1.0575797,-1.184896 -0.2341733,-0.274107 -0.6483954,-0.754714 -0.9204918,-1.067995 -1.4806807,-1.704781 -2.2853249,-2.754722 -2.9056041,-3.791367 -0.9126218,-1.525229 -1.3891288,-2.932277 -1.5190658,-4.485558 -0.0107,-0.127277 -0.02191,-0.711995 -0.02497,-1.299391 -0.0068,-1.279033 -0.01214,-1.399068 -0.178299,-3.96047 -0.07291,-1.123883 -0.08175,-1.326932 -0.09266,-2.127087 -0.02172,-1.5936 0.0983,-2.76245 0.41267,-4.018305 0.240413,-0.960437 0.558372,-1.813351 1.035049,-2.776497 0.8040225,-1.62456 1.7936282,-2.940981 3.7349898,-4.968452 0.2055874,-0.214709 0.6014067,-0.631499 0.8796007,-0.926206 0.8363802,-0.886027 1.2117863,-1.269903 1.5630451,-1.598301 0.8985911,-0.840113 1.5064314,-1.303172 2.6125112,-1.990236 0.4493442,-0.279132 0.8856479,-0.57122 1.837447,-1.230149 0.7480639,-0.5178828 1.1835048,-0.7938378 1.5445256,-0.9788258 0.5005149,-0.256472 0.8142183,-0.35579 1.1302904,-0.357937 0.212762,-0.0015 0.255744,0.0084 0.587396,0.132215 0.311905,0.116577 0.66069,0.203848 0.919859,0.230097 0.629167,0.06377 1.152949,-0.162304 1.616728,-0.69791 0.170607,-0.197013 0.248619,-0.2419894 0.391957,-0.2258215 0.175921,0.019975 0.44532,0.1995715 0.809426,0.5400255 0.57876,0.541181 0.771275,0.702636 0.988943,0.829402 0.197308,0.1149228 0.295349,0.1422658 0.559644,0.1561538 0.132161,0.0069 0.242654,0.01061 0.245522,0.0087 0.0094,-0.0069 -0.141592,-0.6878348 -0.183066,-0.8258308 -0.112557,-0.374507 -0.215616,-0.568185 -0.503786,-0.946756 -0.350242,-0.460116 -0.4994,-0.6752998 -0.588967,-0.8496674 -0.174074,-0.3388906 -0.233211,-0.6068888 -0.23339,-1.0577347 -2.31e-4,-0.5618244 0.071882,-0.9623282 0.409238,-2.2732291 0.155962,-0.6060367 0.238758,-0.9667573 0.326835,-1.4239892 0.0322,-0.167111 0.0934,-0.3316963 0.128347,-0.3450956 0.04,-0.015603 0.06246,0.061519 0.08001,0.273919 0.02481,0.2999502 -0.0025,0.511632 -0.151672,1.1807269 -0.22088,0.9900604 -0.296323,1.4421299 -0.331526,1.9865409 -0.02541,0.3927287 -0.0013,0.7232171 0.06815,0.9338564 0.0675,0.204784 0.28455,0.6253571 0.662334,1.2833341 0.525655,0.9155157 0.792931,1.4583577 0.9478629,1.9251127 0.04675,0.1408298 0.08289,0.2219818 0.101253,0.2273498 0.0157,0.0044 0.1528313,0.01779 0.3047293,0.02903 0.487754,0.03699 0.917667,-0.0062 2.117979,-0.2128678 0.847209,-0.145729 1.136045,-0.181186 1.566316,-0.192205 0.629062,-0.01624 1.077451,0.0745 1.717684,0.3472808 0.698766,0.297702 1.268243,0.669603 2.503086,1.634728 0.824633,0.644522 1.266221,0.954328 1.759984,1.234762 0.565191,0.320999 1.15723,0.748942 1.673185,1.209429 0.112593,0.100472 0.605197,0.58069 1.094692,1.067133 0.891572,0.886008 1.14167,1.117491 1.904586,1.762803 1.167502,0.987529 1.73923,1.549819 2.178831,2.142861 0.427951,0.577328 0.668158,1.050431 0.928874,1.829484 0.295455,0.882805 0.477966,1.784691 0.763302,3.771353 0.287091,1.998929 0.304725,2.076709 0.679964,2.999278 0.08759,0.215396 0.227661,0.559809 0.311186,0.765392 0.384853,0.947049 0.51779,1.466625 0.535048,2.091484 0.03262,1.182976 -0.229349,2.815257 -0.71562,4.458391 -0.130647,0.44154 -0.134533,0.446604 -0.542589,0.717243 -0.444098,0.294519 -0.491019,0.355672 -0.488285,0.636021 0.0016,0.157929 0.01091,0.210154 0.08658,0.462798 0.05864,0.196824 0.08765,0.329146 0.09373,0.428311 0.0084,0.136218 0.0054,0.15253 -0.06255,0.320393 -0.427539,1.058798 -1.114594,2.446328 -1.810687,3.656752 -0.529879,0.921398 -1.229922,1.75141 -2.153671,2.55351 -0.652015,0.566157 -1.250699,1.009539 -2.705579,2.003762 -1.23428,0.843473 -1.587326,1.102408 -2.607674,1.912567 -1.656886,1.315563 -2.682115,1.94806 -3.840831,2.369524 -0.466317,0.169646 -0.766875,0.249231 -1.473477,0.390224 -0.314487,0.06274 -0.787334,0.166487 -1.050768,0.230503 -1.08449,0.263524 -1.293576,0.312658 -1.582565,0.371696 -0.347149,0.07097 -0.661705,0.122166 -1.005693,0.163711 -0.3960682,0.04783 -3.0987662,0.07809 -3.7310062,0.04176 z m 3.6954082,-3.72675 c 0.200695,-0.01532 0.481041,-0.03977 0.622995,-0.05458 3.450837,-0.361954 6.677783,-1.711259 9.380525,-3.922294 0.624892,-0.511208 1.567962,-1.423006 2.085693,-2.016543 2.045875,-2.345425 3.42327,-5.110472 4.037221,-8.104514 0.249697,-1.21768 0.355905,-2.287923 0.355905,-3.586675 0,-0.850145 -0.03458,-1.450616 -0.125152,-2.180485 -0.449482,-3.616496 -1.985321,-6.977391 -4.429026,-9.692024 -0.414989,-0.460995 -1.161425,-1.186735 -1.648743,-1.603021 -0.944137,-0.80653 -2.065706,-1.577411 -3.088455,-2.122787 l -0.187087,-0.09975 -0.17673,0.368633 c -0.0972,0.202755 -0.187048,0.389904 -0.199665,0.415938 -0.02309,0.04722 -0.02278,0.04738 0.159097,0.149664 0.600731,0.337736 1.327642,0.836505 1.979839,1.358435 0.595523,0.476576 1.070809,0.907713 1.68338,1.526997 0.497134,0.502589 0.602283,0.61393 0.879724,0.93149 2.001451,2.290895 3.357794,5.145725 3.861326,8.12734 0.166353,0.985 0.231596,1.783763 0.231127,2.82847 -6.05e-4,1.238351 -0.101757,2.235294 -0.346961,3.420281 -0.391449,1.89168 -1.15402,3.778764 -2.196337,5.435147 -0.922978,1.466729 -2.105318,2.816714 -3.462769,3.953759 -1.174655,0.983923 -2.321442,1.612954 -4.262861,2.338231 -2.645534,0.988322 -4.114332,1.371553 -5.6959532,1.486145 -0.137059,0.01 -0.474591,0.01781 -0.75007,0.01838 -2.998716,3.02e-4 -5.9169842,-0.811867 -8.5236424,-2.372324 -2.0922885,-1.252542 -3.9819685,-3.06057 -5.3119265,-5.082412 l -0.1321652,-0.200914 -0.040452,0.04978 c -0.079659,0.09804 -0.3110211,0.502062 -0.4256904,0.743389 l -0.1167686,0.245735 0.075252,0.10884 c 0.1383989,0.200102 0.4819688,0.658004 0.6826802,0.909816 0.9192161,1.153239 2.0357533,2.235556 3.2220834,3.123333 2.8688275,2.146864 6.2063395,3.345159 9.8166205,3.52456 0.437668,0.02217 1.612299,0.0069 2.0469822,-0.0259 z M 9.6686108,46.240949 c 0.7508202,-0.06532 1.5334072,-0.214583 2.3940812,-0.456623 0.833139,-0.23428 2.34291,-0.755462 3.097174,-1.069178 1.613875,-0.671245 3.043992,-1.513399 4.343166,-2.557573 0.785086,-0.630988 1.671431,-1.514099 2.309357,-2.30093 1.417539,-1.748415 2.433173,-3.859057 2.983466,-6.200076 0.187776,-0.798894 0.307221,-1.582469 0.386588,-2.536485 0.03059,-0.370182 0.0416,-1.609573 0.0178,-2.040643 -0.106849,-1.938912 -0.518399,-3.745191 -1.25248,-5.497593 -1.239567,-2.959069 -3.344024,-5.511864 -6.011106,-7.291721 -0.418394,-0.279225 -1.335789,-0.825478 -1.385283,-0.824869 -0.0088,1.78e-4 -0.31394,0.626512 -0.354914,0.728395 -0.0025,0.0062 0.03343,0.03028 0.08008,0.05281 0.163022,0.07906 0.67442,0.363779 0.939204,0.522987 0.369173,0.22195 0.812791,0.524433 1.194286,0.814338 0.398858,0.303103 0.393658,0.299858 0.870498,0.547214 0.515242,0.267334 0.685815,0.382152 0.908652,0.61183 0.424528,0.437531 0.762527,0.93729 1.298428,1.919824 0.337965,0.619631 0.456078,0.829287 0.666851,1.183694 0.293927,0.494199 0.451259,0.782204 0.675884,1.237087 0.762663,1.544427 1.253502,3.177976 1.469138,4.889399 0.09814,0.778975 0.107405,0.964632 0.107309,2.150443 -1.78e-4,1.129073 -0.01091,1.420674 -0.08185,2.216083 -0.163558,1.832328 -0.554926,3.358542 -1.182566,4.611514 -0.432358,0.863128 -1.048158,1.697 -1.977184,2.677354 -0.360345,0.380243 -1.450304,1.459401 -1.76816,1.750619 -2.540829,2.327878 -5.721918,3.732896 -9.132139,4.033459 -3.5620552,0.313956 -7.0711142,-0.585853 -10.0301995,-2.571963 -1.1048545,-0.741571 -1.8574485,-1.398939 -3.0104889,-2.62958 -0.8266524,-0.88229 -1.2328361,-1.356793 -1.5138533,-1.768474 -0.066784,-0.09785 -0.1301357,-0.190495 -0.1407824,-0.205907 -0.016388,-0.02403 -0.047153,-0.0013 -0.2002487,0.145848 -0.099482,0.09563 -0.180884,0.183909 -0.180884,0.196137 0,0.01225 0.1301606,0.217645 0.2892473,0.456472 1.0298312,1.545892 2.2315094,2.83559 3.68902,3.959234 2.1331672,1.644531 4.7039223,2.726329 7.3958403,3.112251 0.558164,0.07999 1.018149,0.121132 1.788885,0.159767 0.217438,0.01053 1.095215,-0.0059 1.317189,-0.02497 z m 0.08524,-1.157361 c 2.7209552,-0.16237 5.2730712,-1.011694 7.5153042,-2.500991 0.820709,-0.545116 1.456093,-1.061459 2.278378,-1.851498 0.234967,-0.225727 0.579388,-0.55371 0.765397,-0.728801 1.246084,-1.172971 1.75754,-1.732621 2.228656,-2.43866 0.749884,-1.123824 1.224561,-2.738394 1.410317,-4.797062 0.100781,-1.117113 0.136736,-3.02856 0.07281,-3.871474 C 23.841797,26.484518 23.168766,24.305964 21.976305,22.264659 21.84763,22.044394 21.59381,21.60408 21.412264,21.286207 20.770568,20.16261 20.453328,19.680405 20.035945,19.194182 19.745146,18.855411 19.556483,18.705295 18.995735,18.366488 18.61926,18.139014 18.562477,18.100435 18.191801,17.820505 17.757363,17.49239 17.341313,17.22394 16.797453,16.920797 c -0.218302,-0.121668 -0.736186,-0.38768 -0.754776,-0.38768 -0.0044,0 -0.05744,0.0941 -0.118222,0.209154 -0.06082,0.115025 -0.154387,0.28781 -0.207905,0.383944 -0.05353,0.09613 -0.09454,0.177515 -0.09115,0.180846 0.0034,0.0034 0.101068,0.05908 0.217052,0.123946 3.129579,1.749756 5.486307,4.587458 6.616212,7.96648 0.344562,1.030424 0.56907,2.094006 0.674432,3.195072 0.07863,0.821726 0.07516,1.922817 -0.0088,2.767878 -0.1918,1.932432 -0.792171,3.857326 -1.718243,5.509055 -0.0604,0.107654 -0.241802,0.440103 -0.403164,0.738691 -0.378167,0.699781 -0.519559,0.943406 -0.743789,1.281591 -0.44663,0.673615 -0.852095,1.070631 -1.799685,1.762191 -0.194516,0.141942 -0.541911,0.398591 -0.772002,0.570307 -0.543441,0.405566 -0.668398,0.494605 -0.979052,0.697613 -1.699188,1.110385 -3.635379,1.853024 -5.624755,2.157404 -0.891057,0.136333 -1.3161882,0.161432 -2.7233762,0.160839 -1.181468,-5.21e-4 -1.48151,-0.01091 -2.029117,-0.07199 -1.13694,-0.12628 -2.240359,-0.500891 -3.5614589,-1.20913 C 2.217977,42.661276 1.1213145,41.980461 0.7745269,41.718451 0.6930075,41.656871 0.3860139,41.369102 0.0923171,41.07901 -0.4625451,40.530934 -0.5738079,40.431739 -1.0444876,40.065518 -1.5412625,39.678995 -1.7994157,39.449109 -2.0149912,39.201274 -2.3915757,38.768341 -3.0344972,37.960997 -3.3149891,37.5688 l -0.148452,-0.207561 -0.1415253,0.109702 c -0.2176403,0.168727 -0.6093038,0.5172 -0.6146017,0.546862 -0.00643,0.03618 0.2841036,0.420477 0.5312582,0.702896 0.1113811,0.127277 0.402835,0.438312 0.647679,0.691215 0.2448447,0.252881 0.5821385,0.605339 0.7495404,0.783196 0.5686524,0.604152 1.0421448,1.050226 1.5913161,1.499164 2.2508716,1.840058 4.9957452,2.996144 7.8764352,3.317397 0.274687,0.0309 0.576294,0.05567 0.943392,0.07838 0.231586,0.01436 1.361212,0.01 1.633824,-0.0065 z m -0.289938,-1.193181 c 3.4994172,-0.135185 6.6731712,-1.330608 9.0423252,-3.406001 0.264181,-0.23147 0.856706,-0.823247 1.053037,-1.051789 0.379006,-0.441192 0.577149,-0.784668 1.073631,-1.861089 0.123908,-0.268676 0.332681,-0.688738 0.46391,-0.933484 0.464853,-0.866948 0.803191,-1.665826 1.068333,-2.522538 C 23.71878,29.095494 22.346225,23.660397 18.601501,20.004076 17.85917,19.279265 17.10392,18.685379 16.210058,18.12357 16.046386,18.020703 15.564432,17.741537 15.45153,17.684226 l -0.05542,-0.02809 -0.103806,0.132523 c -0.120576,0.153966 -0.204784,0.226195 -0.322501,0.276665 l -0.08437,0.03618 0.123889,0.06745 c 0.212495,0.115676 0.62867,0.373166 0.907074,0.561219 1.642259,1.109309 2.977158,2.432819 3.968934,3.935081 0.732157,1.109012 1.271757,2.266528 1.656562,3.553559 0.03448,0.115484 0.09801,0.296298 0.141082,0.40186 0.0431,0.105567 0.118757,0.290431 0.168133,0.410765 0.16283,0.396783 0.223511,0.695163 0.244672,1.203137 0.01225,0.297827 -0.01685,1.805413 -0.04813,2.485114 -0.124004,2.689038 -0.995871,5.352444 -2.394831,7.315744 -0.382771,0.537176 -0.678053,0.884989 -1.172691,1.381306 -0.380959,0.382269 -0.576372,0.560084 -0.911515,0.829476 -1.952985,1.569841 -4.370057,2.520284 -7.116824,2.798485 -0.7828212,0.07928 -1.9224332,0.09666 -2.5898792,0.0394 -1.823301,-0.156255 -3.407828,-0.604345 -4.9750676,-1.406924 -1.91207591,-0.979165 -3.5394011,-2.391232 -4.7816246,-4.149115 -0.1690111,-0.23918 -0.4694554,-0.699951 -0.499769,-0.766487 -0.010894,-0.02403 -0.02778,-0.04342 -0.037532,-0.04342 -0.046927,0 -0.7597281,0.431045 -0.7597281,0.459426 0,0.08809 1.295947,1.689768 1.6397619,2.026655 0.2220849,0.217612 0.286145,0.270798 0.7899185,0.655668 0.5482685,0.41888 0.5487138,0.419271 1.1035904,0.979063 0.274119,0.276542 0.56156769,0.5523 0.63877559,0.612785 0.21755281,0.170412 1.22882581,0.832658 1.77310461,1.161108 0.7353703,0.443761 1.4556373,0.790491 2.0647833,0.993964 0.519195,0.173456 0.927209,0.253257 1.584187,0.309938 0.146076,0.01244 2.599721,-0.0084 3.061575,-0.02621 z m 0.391595,-1.191623 c 1.6433832,-0.06622 2.9241372,-0.275448 4.0721802,-0.665203 1.752057,-0.594828 3.29929,-1.706369 4.816885,-3.460465 1.300556,-1.503229 2.180855,-3.383412 2.626942,-5.610742 0.183181,-0.914611 0.271359,-1.774748 0.294706,-2.874679 0.0063,-0.293706 0.02309,-0.694196 0.03699,-0.889992 0.06601,-0.916512 0.04815,-1.40963 -0.06354,-1.756432 -0.02933,-0.09126 -0.134342,-0.330146 -0.233218,-0.530849 -0.153525,-0.311655 -0.205168,-0.441488 -0.353989,-0.889994 -0.266687,-0.803785 -0.538926,-1.447746 -0.882901,-2.088477 -0.730334,-1.360417 -1.644704,-2.513327 -2.945792,-3.714279 -0.943927,-0.871276 -1.964418,-1.615533 -2.75461,-2.008965 -0.199829,-0.09948 -0.55906,-0.187125 -0.723705,-0.176557 -0.210645,0.0134 -0.299774,0.07325 -0.670326,0.449288 l -0.314973,0.319645 0.290569,0.110219 c 0.926069,0.351215 1.729476,0.777843 2.812249,1.493306 0.748145,0.494348 1.176967,0.837787 1.71043,1.369872 0.542342,0.540937 0.942348,1.056022 1.389789,1.789603 1.601086,2.624986 2.123387,6.177124 1.357052,9.229228 -0.513215,2.043999 -1.536395,3.873452 -3.003,5.369379 -1.000099,1.020096 -2.030707,1.763805 -3.299889,2.38128 -1.961722,0.954401 -4.1488372,1.336895 -6.3601172,1.112282 C 5.8012718,41.467729 3.9875158,40.816663 2.4062769,39.77135 1.0566584,38.879154 -0.1223452,37.688511 -0.9890067,36.342543 -1.0697938,36.217046 -1.1425245,36.1141 -1.1506249,36.113725 c -0.043211,-0.0021 -1.0621622,0.46937 -1.0621622,0.491469 0,0.0157 0.2509811,0.427411 0.3617375,0.593605 0.7006085,1.051301 1.6054772,2.016694 2.6375388,2.813951 2.0589533,1.590519 4.6323326,2.531283 7.3424386,2.684203 0.37577,0.02091 1.224225,0.02248 1.726586,0.0019 z m -0.0089,-1.405078 c 1.8039702,-0.166429 3.4283462,-0.695315 4.9394612,-1.6082 1.312454,-0.792874 2.500557,-1.898143 3.395925,-3.159165 1.141681,-1.607925 1.833972,-3.453516 2.041257,-5.441856 0.148758,-1.426841 0.0046,-3.234483 -0.373485,-4.681359 C 19.444194,24.850812 18.80751,23.572745 17.885674,22.460455 17.65748,22.185101 16.967659,21.497606 16.682269,21.26108 15.547642,20.320723 14.23116,19.605754 12.793913,19.14935 l -0.292262,-0.0928 -0.243955,0.255722 -0.243952,0.255723 0.135724,0.04099 c 1.296328,0.391336 2.609788,1.185954 3.891491,2.354239 1.14583,1.044437 1.955089,2.23521 2.545636,3.745735 0.382166,0.977526 0.617972,1.997666 0.732382,3.168377 0.03963,0.405616 0.04547,1.618176 0.0094,1.975786 -0.111177,1.105133 -0.323696,2.048352 -0.665748,2.954777 -0.790047,2.093558 -2.104443,3.81321 -3.832134,5.013655 -1.198192,0.83254 -2.681941,1.34167 -4.423267,1.517793 -0.9457042,0.09567 -2.0619952,0.09548 -3.0081752,-4.31e-4 -1.795343,-0.182003 -3.437163,-0.728882 -4.6745839,-1.557066 -1.036235,-0.693531 -1.9891338,-1.708586 -2.6863634,-2.861589 -0.077944,-0.128848 -0.1481495,-0.234344 -0.1560182,-0.234405 -0.00793,0 -0.1616392,0.06077 -0.3417212,0.135127 l -0.3274151,0.135185 0.085591,0.136275 c 0.6075738,0.967358 1.5095576,1.968441 2.466836,2.737843 1.4554178,1.16978 3.2130168,1.97457 5.0462588,2.310634 0.475895,0.08725 0.830889,0.129498 1.486287,0.176902 0.180601,0.0134 1.341887,-0.0054 1.548587,-0.02403 z m -0.293691,-1.318077 c 1.2874032,-0.0354 2.1121052,-0.134112 2.9636762,-0.355433 1.314459,-0.341589 2.328858,-0.95307 3.399773,-2.049392 0.455472,-0.466272 0.7991,-0.89157 1.149207,-1.422319 1.026119,-1.555568 1.629924,-3.285141 1.826911,-5.233107 0.04428,-0.438087 0.04392,-1.549576 -6.97e-4,-1.993582 -0.140832,-1.401798 -0.471841,-2.599971 -1.035101,-3.746869 -0.633732,-1.290391 -1.414633,-2.262911 -2.617102,-3.259306 -1.095148,-0.907466 -2.282085,-1.555612 -3.419763,-1.867413 l -0.226876,-0.06218 -0.06178,0.05797 -0.06178,0.05795 0.04049,-0.05889 c 0.02225,-0.03222 0.03738,-0.06199 0.0336,-0.06576 -0.02013,-0.02029 -0.555609,-0.08309 -0.846109,-0.09948 -0.365737,-0.0206 -2.0949132,0.0054 -2.5684512,0.03817 -2.297051,0.160552 -4.455455,1.005388 -6.129582,2.39915 -0.8107745,0.674998 -1.5077866,1.497692 -1.9704751,2.325777 -0.8101813,1.450007 -1.2335913,3.421717 -1.1849428,5.517955 0.016695,0.720219 0.055709,1.150193 0.1630311,1.797792 0.3671334,2.21523 1.3008626,4.12968 2.6960023,5.527666 1.0526433,1.054798 2.2696165,1.713593 3.9250845,2.124809 0.984845,0.244611 1.805124,0.341591 3.221774,0.380796 0.04895,0.0013 0.36534,-0.0054 0.703093,-0.01436 z M 8.2980188,39.083564 C 5.0406058,38.878156 2.09771,37.041025 0.5849793,34.268645 0.3737482,33.881525 0.1560161,33.385968 0.0149538,32.971271 c -0.114232,-0.335828 -0.1914935,-0.713896 -0.2445989,-1.196922 -0.03857,-0.350938 -0.056553,-2.050118 -0.026083,-2.468343 0.1308077,-1.796723 0.7608069,-3.480325 1.8322368,-4.896466 0.3309461,-0.437426 0.5125759,-0.634279 1.6651781,-1.804808 0.832992,-0.845951 1.278136,-1.141267 2.146075,-1.423776 0.726653,-0.236503 1.500124,-0.350421 2.687778,-0.395829 1.096643,-0.04195 1.9161599,0.01493 2.7398922,0.191337 0.681666,0.145695 1.379597,0.383065 1.994868,0.678546 0.13216,0.06345 0.491488,0.234248 0.798495,0.379487 1.033025,0.488717 1.372209,0.706442 1.818082,1.167032 0.494783,0.511112 0.922713,1.18197 1.565373,2.45401 0.448036,0.886814 0.700108,1.592237 0.872005,2.440324 0.131968,0.651045 0.179103,1.140182 0.179161,1.859233 1.78e-4,1.004495 -0.122415,1.875151 -0.403107,2.86489 -0.61127,2.155368 -1.909663,4.038436 -3.526982,5.115205 -0.95019,0.632608 -2.062717,0.973337 -3.608107,1.105028 -0.6876152,0.05858 -1.6619982,0.07771 -2.2071822,0.04333 z m 2.3050802,-0.460378 c 1.638514,-0.112459 2.631189,-0.418342 3.54217,-1.091597 1.868215,-1.380695 3.156383,-3.883341 3.4184,-6.641255 0.0505,-0.53155 0.0505,-1.408769 6e-6,-1.92403 -0.119753,-1.221977 -0.427187,-2.350598 -0.916394,-3.36417 -0.611008,-1.265943 -1.436106,-2.244243 -2.48421,-2.945475 -1.167742,-0.781272 -2.585481,-1.244274 -4.2897662,-1.400937 -0.423612,-0.03898 -1.776598,-0.04388 -2.28728,-0.0084 -1.16873,0.08127 -1.981941,0.26496 -2.69214,0.608084 -0.441435,0.213272 -0.710433,0.416937 -1.197128,0.906367 -0.479525,0.482217 -1.1204054,1.150186 -1.3315789,1.387854 -1.0658378,1.199567 -1.7698899,2.645352 -2.0595216,4.22928 -0.084268,0.460837 -0.1157347,0.803062 -0.1333924,1.450689 -0.00921,0.337735 -0.025375,0.854897 -0.035863,1.14922 -0.033081,0.925055 0.019258,1.456499 0.1935317,1.965754 0.5392291,1.57555 1.7147042,3.059502 3.2333382,4.081866 0.494698,0.333044 1.154014,0.687307 1.690987,0.908615 0.87415,0.36028 1.91308,0.612472 2.830176,0.687016 0.127272,0.01034 0.267443,0.02184 0.311499,0.0259 0.158921,0.01378 1.9377022,-0.0059 2.2071812,-0.02466 z M 7.1588278,37.846534 C 6.4290508,37.793244 5.9899378,37.69162 5.3955228,37.438354 4.2085178,36.93261 3.0436943,35.95715 2.1630565,34.731381 1.4808902,33.781868 1.1390424,32.683616 1.0057438,31.013288 c -0.035348,-0.443122 -0.029861,-1.668538 0.00923,-2.055882 0.1183194,-1.17212 0.3553835,-2.060294 0.7712431,-2.889492 0.352827,-0.703512 0.7338748,-1.164527 1.4740589,-1.783402 0.31734,-0.265335 1.096735,-0.845351 1.360302,-1.012324 1.08937,-0.690147 2.234667,-1.085523 3.512219,-1.212476 0.638891,-0.06349 2.2188822,-0.05213 2.7702932,0.01997 0.953141,0.124501 1.603122,0.44769 2.476767,1.231501 0.465929,0.418018 1.170623,1.091989 1.350398,1.29153 0.979812,1.087514 1.626061,2.35321 1.905714,3.732385 0.124348,0.613185 0.152338,0.914707 0.152166,1.636976 -1.78e-4,0.62212 -0.01187,0.811001 -0.08177,1.317191 -0.194643,1.409959 -0.689669,2.670355 -1.398218,3.559974 -0.148222,0.186111 -0.564359,0.605274 -0.780162,0.785854 -0.504765,0.422378 -1.410413,1.021868 -2.026415,1.341383 -0.704575,0.365449 -1.560999,0.646156 -2.361249,0.773924 -0.5142222,0.0821 -0.7026712,0.09217 -1.8244852,0.09756 -0.587394,0.0029 -1.10804,0.0023 -1.15699,-0.0013 z m 0.925593,-0.405567 c 0.21538,-0.01436 0.59585,-0.03121 0.845492,-0.03699 0.884039,-0.02123 1.5270972,-0.104591 2.2249832,-0.286936 1.09732,-0.286747 2.059133,-0.76085 2.894465,-1.426747 0.251321,-0.200353 0.740807,-0.689639 0.93924,-0.93887 0.485735,-0.610076 0.785107,-1.193752 1.007348,-1.963962 0.355877,-1.233347 0.456127,-2.897382 0.248419,-4.123595 -0.211344,-1.247797 -0.775795,-2.476387 -1.600086,-3.48279 -0.171197,-0.209028 -1.45407,-1.508777 -1.759859,-1.783021 -0.638887,-0.572984 -1.088875,-0.800921 -1.805647,-0.91464 -0.173075,-0.02747 -0.311611,-0.0314 -1.036373,-0.02902 -0.9575872,0.0031 -1.7295692,0.02872 -2.0647842,0.06823 -1.490551,0.17581 -2.870842,0.74646 -4.017274,1.660822 -0.296234,0.236277 -0.86043,0.798417 -1.0845196,1.080581 -0.3633561,0.457523 -0.6250576,0.884685 -0.7851719,1.281591 -0.2412747,0.598098 -0.5435272,1.843994 -0.6282974,2.58988 -0.059281,0.521564 -0.050654,1.556723 0.019258,2.313983 0.1104698,1.196501 0.3994173,2.153699 0.8616393,2.854389 0.1441826,0.218581 0.4439902,0.617611 0.6371051,0.847976 1.1380825,1.35762 2.4532575,2.192445 3.6444685,2.313388 0.209198,0.02091 0.96467,0.0088 1.459589,-0.02435 z m 0.436097,-0.893718 C 6.5873018,36.413688 4.9092248,35.548572 3.7233638,34.074177 2.9574095,33.12186 2.4794926,31.986706 2.314776,30.728491 c -0.040557,-0.309813 -0.046494,-1.209326 -0.0099,-1.50409 0.1095796,-0.883224 0.3254509,-1.591392 0.713571,-2.340916 0.5200569,-1.004312 1.2578249,-1.823287 2.2181749,-2.462328 1.403904,-0.934185 3.068383,-1.286066 4.7612999,-1.006565 1.6452502,0.27164 3.1624582,1.195634 4.1764692,2.543536 0.75085,0.998088 1.200577,2.17588 1.306789,3.422335 0.02778,0.325651 0.01244,1.109912 -0.02715,1.391532 -0.192767,1.372088 -0.718114,2.529428 -1.610775,3.548541 -0.66423,0.758319 -1.565057,1.39274 -2.501516,1.761726 -0.579687,0.228379 -1.125174,0.365289 -1.7176861,0.431029 -0.249523,0.02778 -0.903238,0.04779 -1.103591,0.03377 z m 1.02349,-0.4807 c 2.0286252,-0.205533 3.8439952,-1.440612 4.8056252,-3.269495 0.355502,-0.676114 0.569055,-1.37663 0.671304,-2.202064 0.0309,-0.248855 0.03027,-1.069655 -7.83e-4,-1.32609 -0.151917,-1.251618 -0.621871,-2.351961 -1.406394,-3.292975 -0.1925,-0.230895 -0.620518,-0.651628 -0.847976,-0.833546 -0.880874,-0.704514 -1.880287,-1.1404 -3.0081762,-1.311997 -0.316544,-0.04817 -1.069382,-0.0677 -1.409545,-0.03659 -1.16029,0.106084 -2.229799,0.514953 -3.147315,1.203157 -1.390015,1.04261 -2.2522464,2.555553 -2.4498172,4.29866 -0.03356,0.296081 -0.028716,1.05188 0.00867,1.352161 0.1390441,1.11671 0.5366382,2.110925 1.1938082,2.985212 0.608574,0.809642 1.356031,1.422354 2.276319,1.865981 1.028314,0.495693 2.141795,0.686387 3.314264,0.567599 z m -1.041287,-0.736792 c -1.560095,-0.105128 -2.981113,-0.811453 -3.885456,-1.931289 -0.604969,-0.74912 -0.967156,-1.667759 -1.101807,-2.794579 -0.03028,-0.253475 -0.03025,-1.17682 0,-1.441784 0.07845,-0.685859 0.196331,-1.135457 0.420055,-1.60199 0.752356,-1.568903 2.344531,-2.706381 4.15937,-2.971533 0.610049,-0.08914 1.40912,-0.06473 2.0809782,0.06354 2.372864,0.453033 3.765556,2.010744 4.079943,4.563377 0.03458,0.280974 0.02902,1.195211 -0.009,1.468485 -0.185938,1.337067 -0.704048,2.417135 -1.554352,3.240184 -0.805461,0.779647 -1.890348,1.253393 -3.1751892,1.386542 -0.254505,0.02621 -0.763931,0.0358 -1.014591,0.01895 z m 1.014591,-0.516366 c 1.6986942,-0.126396 2.7933312,-0.67618 3.4552502,-1.735316 0.673268,-1.0773 0.939605,-2.559499 0.752924,-4.190149 -0.150687,-1.316268 -0.605455,-2.29461 -1.336877,-2.876035 -0.749898,-0.596111 -1.879498,-0.92915 -3.2717932,-0.964616 -0.757397,-0.01936 -1.343564,0.06483 -2.016554,0.289401 -1.195989,0.399049 -2.184152,1.177055 -2.759974,2.173009 -0.168799,0.29196 -0.263921,0.555211 -0.317315,0.878154 -0.06037,0.365176 -0.04664,1.99834 0.02172,2.58098 0.09156,0.780421 0.29064,1.430569 0.591383,1.93129 0.216466,0.360401 0.574162,0.734163 0.965272,1.008617 0.684779,0.480543 1.682052,0.813375 2.705577,0.902969 0.245626,0.02123 0.931554,0.02278 1.210391,0.0018 z M 8.4671198,33.875854 C 7.3886448,33.7648 6.4790868,33.347773 5.8381738,32.670561 5.2779588,32.07862 5.0078768,31.356648 4.9418618,30.274593 c -0.02769,-0.453596 0.0057,-0.881951 0.09972,-1.281591 0.400264,-1.700589 1.76817,-3.002073 3.378996,-3.214922 0.280003,-0.03699 0.806134,-0.02435 1.079277,0.02621 0.7733702,0.142555 1.4946972,0.531441 2.0761902,1.119312 0.859155,0.868578 1.312213,2.021848 1.262586,3.213951 -0.04294,1.031545 -0.310815,1.90189 -0.773593,2.513476 -0.52319,0.691428 -1.423669,1.110375 -2.6189232,1.218459 -0.188984,0.01723 -0.834614,0.02123 -0.978993,0.0069 z m 1.174792,-0.505575 c 0.5558182,-0.04367 1.0983902,-0.174471 1.4506872,-0.349785 0.266421,-0.132562 0.550224,-0.375509 0.714561,-0.61164 0.348556,-0.500847 0.539653,-1.350458 0.540102,-2.40126 1.78e-4,-0.41225 -0.03698,-0.700889 -0.136264,-1.059095 -0.336545,-1.213982 -1.271261,-2.241966 -2.3716102,-2.608254 -0.381114,-0.126875 -0.528085,-0.149467 -0.971772,-0.149467 -0.438541,0 -0.591762,0.02309 -0.951182,0.142805 -1.283994,0.427907 -2.296769,1.735707 -2.466063,3.184437 -0.04955,0.424066 -0.0269,1.273882 0.04525,1.698623 0.08972,0.52808 0.240675,0.858322 0.532189,1.164259 0.388935,0.408174 0.916286,0.692997 1.605046,0.866882 0.575034,0.145159 1.219949,0.184502 2.009063,0.12251 z m -1.210391,-1.013657 c -0.868387,-0.119486 -1.488833,-0.512252 -1.753089,-1.109789 -0.323463,-0.731403 -0.315968,-1.923585 0.01667,-2.653525 0.13107,-0.28759 0.319093,-0.510569 0.697937,-0.827589 0.731106,-0.611798 1.306764,-0.766051 2.017467,-0.540615 0.214282,0.06798 0.5824219,0.258874 0.8191502,0.424796 0.232606,0.163022 0.57688,0.485096 0.678505,0.634743 0.263672,0.388274 0.398322,0.887143 0.419394,1.553854 0.01995,0.630357 -0.06352,1.181199 -0.235241,1.552875 -0.234922,0.508451 -0.702057,0.804018 -1.4860062,0.940235 -0.196122,0.03421 -0.986592,0.05091 -1.174791,0.02497 z m 0.832845,-0.392253 c 0.373857,-0.04107 0.7374442,-0.147878 0.9711932,-0.285279 0.136643,-0.08031 0.38977,-0.321837 0.531269,-0.506856 0.112757,-0.147438 0.199274,-0.311095 0.24874,-0.470446 0.03797,-0.122262 0.04137,-0.164917 0.04075,-0.507299 -0.0016,-0.871323 -0.195855,-1.659515 -0.478145,-1.940243 -0.334576,-0.332727 -0.9172152,-0.649988 -1.3753062,-0.748886 -0.202009,-0.04361 -0.509686,-0.03996 -0.689613,0.0084 -0.399722,0.106964 -0.859746,0.390183 -1.231663,0.758359 -0.135586,0.134246 -0.173724,0.185115 -0.233636,0.311686 -0.13098,0.276792 -0.177331,0.519595 -0.200489,1.050188 -0.02544,0.583305 0.0092,1.144099 0.08945,1.444681 0.146401,0.548799 0.534166,0.811179 1.307703,0.88484 0.234801,0.02248 0.820396,0.02309 1.019744,0.0011 z M 8.2418988,31.71748 c -0.236333,-0.06349 -0.467071,-0.207387 -0.683057,-0.425985 -0.33724,-0.341315 -0.452791,-0.62628 -0.488134,-1.203811 -0.02875,-0.470021 0.09482,-0.964722 0.3078,-1.232112 0.154837,-0.194391 0.532888,-0.475906 0.786972,-0.586014 0.270077,-0.117015 0.405712,-0.139492 0.844538,-0.139683 0.44175,-1.99e-4 0.502555,0.01053 0.701355,0.128311 0.137482,0.08118 0.5435792,0.466766 0.6508222,0.617935 0.143922,0.20288 0.259983,0.47254 0.314598,0.730949 0.03276,0.154942 0.02778,0.554924 -0.0094,0.745325 -0.03753,0.192861 -0.112218,0.401818 -0.200112,0.559998 -0.171206,0.308129 -0.6853672,0.66991 -1.1217502,0.789328 -0.120632,0.03303 -0.197159,0.03896 -0.558101,0.04411 -0.368353,0.0054 -0.433497,0.0018 -0.545618,-0.02809 z m 0.55452,-0.05424 c 0.496138,-0.02497 0.737564,-0.07993 1.018346,-0.231377 0.5639182,-0.304195 0.8095122,-0.787282 0.7828892,-1.539967 -0.007,-0.19901 -0.01828,-0.281473 -0.05592,-0.409397 C 10.437879,29.12926 10.314124,28.940235 9.9550897,28.586485 9.5795788,28.2165 9.5064358,28.191213 8.9074388,28.224413 c -0.270748,0.01493 -0.377571,0.02872 -0.51034,0.06502 -0.294844,0.08083 -0.559952,0.234311 -0.773291,0.447665 -0.222316,0.222295 -0.304014,0.376583 -0.399057,0.753527 -0.04281,0.169742 -0.04731,0.219111 -0.04718,0.51698 2.49e-4,0.569655 0.08588,0.830384 0.381761,1.162255 0.234052,0.262496 0.48813,0.434401 0.714947,0.483629 0.140811,0.0309 0.11817,0.02996 0.522144,0.0094 z m -14.4795455,7.627008 c 0.129952,-0.205597 0.2703358,-0.423699 0.3119606,-0.48469 l 0.075677,-0.110889 -0.1205115,-0.200602 c -0.8968759,-1.492955 -1.583185,-3.209607 -1.9589093,-4.899801 -0.1529645,-0.6881 -0.2559658,-1.339809 -0.3277529,-2.073679 -0.095797,-0.979416 -0.095965,-2.153989 -4.625e-4,-3.221777 0.2709446,-3.029257 1.3166642,-5.914742 3.0124567,-8.312349 1.3281051,-1.877746 3.3996639,-3.751651 5.4409752,-4.921832 0.7492398,-0.4295 1.4416172,-0.742331 2.2077569,-0.997513 1.7101113,-0.5696 3.6529963,-0.816349 6.1854493,-0.785551 1.6310082,0.01998 2.8908322,0.167078 4.2363652,0.495211 0.808642,0.197168 1.75827,0.519956 2.383285,0.810043 0.09217,0.04279 0.169052,0.07566 0.17089,0.07307 0.0018,-0.0026 0.09642,-0.185619 0.210184,-0.406768 l 0.206839,-0.402077 -0.235153,-0.104062 c -2.755767,-1.219598 -5.706366,-1.721414 -8.6811942,-1.47641 -3.641648,0.299919 -7.048465,1.689044 -9.8611199,4.020856 -0.4595072,0.380958 -0.7292846,0.629265 -1.2373006,1.138842 -0.5120771,0.513659 -0.729938,0.752405 -1.1385893,1.247738 -2.1948681,2.660446 -3.5582899,5.895679 -3.9336074,9.333957 -0.1161406,1.063992 -0.1299673,2.443661 -0.034992,3.490841 0.2597956,2.864177 1.1639157,5.529468 2.691766,7.935153 0.082688,0.130187 0.1524476,0.23431 0.1550188,0.231408 0.00256,-0.0029 0.1110039,-0.173513 0.2409588,-0.379129 z m 0.9138408,-1.636817 c -0.2477726,-0.479496 -0.4288477,-0.930718 -0.8285186,-2.064576 -0.3166834,-0.89842 -0.3851336,-1.205013 -0.5307541,-2.377275 -0.089799,-0.722879 -0.1394001,-1.024334 -0.2518708,-1.530784 -0.2237829,-1.007699 -0.2476103,-1.163371 -0.2595054,-1.695769 -0.029558,-1.321106 0.2108923,-2.796321 0.6899634,-4.233532 0.3460674,-1.038214 0.8680502,-2.181865 1.4858309,-3.255433 0.3131686,-0.54423 0.3388703,-0.59154 0.6558762,-1.207359 0.503807,-0.978709 0.6624588,-1.214921 1.2392523,-1.845103 0.2478993,-0.270861 0.798035,-0.8177 1.0682175,-1.061849 0.8291398,-0.749248 1.8853283,-1.500269 2.9013765,-2.06308 0.2712356,-0.150225 0.9467112,-0.482889 1.245619,-0.613419 1.4245208,-0.622083 2.8964908,-1.019971 4.4414328,-1.200568 0.600127,-0.07013 1.003568,-0.09002 2.216082,-0.109055 2.6194582,-0.0412 3.0328082,0.0358 4.9750592,0.927139 0.745248,0.34199 1.036918,0.467576 1.057084,0.455113 0.01589,-0.01 0.04754,-0.06679 0.294457,-0.53064 l 0.101776,-0.191207 -0.139243,-0.0642 c -0.07661,-0.03539 -0.32751,-0.140237 -0.557576,-0.233156 -2.078298,-0.839324 -4.362185,-1.223778 -6.8139032,-1.147002 -1.173852,0.03658 -1.977136,0.111022 -2.913717,0.269331 -2.0574,0.347836 -3.6643225,0.977984 -5.2598569,2.062646 -1.23026,0.836348 -2.5233027,2.029484 -3.6083557,3.329555 -1.4478617,1.734769 -2.5359838,3.74388 -3.1818938,5.875058 -0.3568308,1.177362 -0.5615841,2.295299 -0.671578,3.666774 -0.03503,0.436938 -0.029183,1.800194 0.00946,2.207181 0.1486607,1.564833 0.5037449,3.00413 1.1410702,4.625228 0.3420596,0.870058 0.6670514,1.563521 1.0838357,2.31266 l 0.180951,0.325254 0.1793026,-0.190954 0.1793026,-0.190993 z m 0.5223375,-0.08144 c 0.085949,-0.06883 0.2584003,-0.194546 0.3832204,-0.279349 0.1248211,-0.08481 0.2269478,-0.160399 0.2269478,-0.167961 0,-0.0075 -0.045567,-0.08412 -0.1012648,-0.170048 -1.2624361,-1.949471 -1.6783577,-3.64878 -1.6785548,-6.858014 0,-0.921327 0.034036,-1.446898 0.1437231,-2.216086 0.532272,-3.732319 2.5484365,-7.121802 5.5954706,-9.406889 0.1278709,-0.09592 0.4239557,-0.30407 0.65797209,-0.46256 0.23401851,-0.158522 0.55296151,-0.385678 0.70876411,-0.50484 0.9054577,-0.692461 1.1282527,-0.84452 1.5179287,-1.035978 0.627002,-0.308065 1.5155,-0.549161 2.51868,-0.683455 1.237893,-0.165675 3.232743,-0.209778 4.4677642,-0.09869 1.480135,0.133121 3.01297,0.520381 4.324871,1.092596 0.09274,0.04042 0.177878,0.06998 0.18925,0.06565 0.02278,-0.0088 0.434266,-0.687497 0.434266,-0.716416 0,-0.0206 -1.472677,-0.679607 -1.877884,-0.840216 -0.85295,-0.338063 -1.455243,-0.467966 -2.411908,-0.520131 -0.410442,-0.02216 -2.3115202,-0.0091 -2.9191752,0.02029 -2.196544,0.106715 -4.170926,0.58279 -5.8650526,1.414248 -1.5620496,0.766637 -3.0572921,1.977319 -4.5445256,3.679654 -0.4330099,0.495637 -0.5788222,0.725889 -1.0379714,1.639035 -0.1878701,0.373642 -0.447198,0.863563 -0.5762848,1.088731 -0.8846586,1.543128 -1.4429553,2.864234 -1.7978062,4.254165 -0.2279151,0.892723 -0.3400787,1.649577 -0.3856937,2.602542 -0.033282,0.695174 -0.00415,0.940072 0.2261737,1.900821 0.1831106,0.763846 0.1869779,0.788867 0.3199076,2.069529 0.074965,0.722196 0.1467595,1.079627 0.3208395,1.597245 0.05268,0.156627 0.1796855,0.553128 0.2822403,0.881092 0.1996339,0.638414 0.3203447,0.982232 0.4498571,1.281284 0.1050268,0.24252 0.2367858,0.4987 0.2564901,0.4987 0.00848,0 0.085797,-0.05631 0.1717479,-0.125133 z m 1.4821361,-0.909529 c 0.1222499,-0.05889 0.2252998,-0.110047 0.2290109,-0.113742 0.00368,-0.0034 -0.04243,-0.09494 -0.1025112,-0.202725 -0.7556318,-1.355949 -1.2692771,-2.85217 -1.5037551,-4.380393 -0.098125,-0.639537 -0.131832,-1.047372 -0.1529894,-1.851186 -0.0089,-0.337739 -0.029932,-0.762278 -0.046793,-0.943392 -0.042018,-0.451769 -0.04335,-1.110129 -0.00268,-1.327114 0.038174,-0.203848 0.1210379,-0.442001 0.2926246,-0.841091 0.2301252,-0.535247 0.2858827,-0.732552 0.486355,-1.721065 0.2238108,-1.103613 0.3563574,-1.555737 0.5996498,-2.045513 0.053095,-0.106869 0.1366968,-0.252445 0.1857909,-0.323422 0.1088444,-0.15747 0.352882,-0.395232 0.601348,-0.58598 0.6000304,-0.460603 0.7126916,-0.564673 1.078492,-0.996237 0.4844903,-0.571597 1.1413828,-1.202645 1.7993857,-1.728587 1.2369538,-0.988699 2.7594209,-1.792042 4.2945949,-2.266085 1.574019,-0.486032 3.156006,-0.659401 5.0398362,-0.552309 1.196047,0.06799 2.218764,0.256067 3.167145,0.582398 0.490208,0.168669 0.595074,0.187125 0.785932,0.138209 0.06117,-0.0157 0.152626,-0.05215 0.203256,-0.08116 0.09571,-0.05474 0.258031,-0.188561 0.258031,-0.212649 0,-0.01838 -0.141043,-0.08072 -0.498398,-0.220515 -1.246462,-0.487711 -2.509711,-0.78405 -3.889269,-0.912351 -0.4214482,-0.03936 -2.2221132,-0.05515 -2.9369752,-0.02591 -1.382531,0.05631 -2.346056,0.200945 -3.175655,0.476733 -0.677174,0.225104 -0.9851118,0.412964 -1.9062044,1.162886 -0.322707,0.262747 -0.6209265,0.485686 -0.8454933,0.632072 -2.0404299,1.330096 -3.7639853,3.287157 -4.8585449,5.516776 -0.8336791,1.698206 -1.2952954,3.494324 -1.399857,5.446755 -0.02369,0.4428 -0.01187,1.941162 0.019258,2.438584 0.1375584,2.197411 0.5204695,3.459065 1.5056128,4.96082 l 0.1833193,0.279444 0.1836256,-0.09804 c 0.1009929,-0.05389 0.283645,-0.146193 0.4058954,-0.205064 z m 1.1992388,-0.506864 c 0.1971618,-0.07432 0.3606721,-0.137176 0.3633561,-0.139741 0.00268,-0.0025 -0.026187,-0.05585 -0.064075,-0.118452 -0.2356177,-0.388786 -0.4209922,-0.763722 -0.8165533,-1.651591 -0.5652114,-1.268663 -0.7127613,-1.695672 -0.8010466,-2.318235 -0.0371,-0.261621 -0.039721,-0.94902 -0.00823,-2.142501 0.02007,-0.759835 0.049452,-1.141171 0.1275205,-1.655385 0.5005822,-3.29718 2.3909603,-6.227374 5.2000156,-8.06031 0.747336,-0.487648 1.581329,-0.901889 2.472919,-1.228294 0.301436,-0.110334 0.505594,-0.206907 1.022276,-0.483455 0.704438,-0.37706 0.989236,-0.409905 2.233881,-0.257781 0.182132,0.02217 0.506686,0.04241 0.854394,0.05303 0.850292,0.0259 1.3995222,0.08085 2.0641672,0.206252 0.35806,0.06754 0.799113,0.172766 1.120791,0.267364 0.111911,0.03299 0.20504,0.05795 0.206944,0.05566 0.0019,-0.0023 0.135393,-0.20441 0.296645,-0.44918 0.16126,-0.244735 0.322897,-0.475111 0.359219,-0.511914 0.04315,-0.04373 0.05797,-0.06944 0.04277,-0.07428 -0.403746,-0.127564 -0.979891,-0.254819 -1.491759,-0.329584 -1.149931,-0.167961 -2.8415442,-0.209497 -3.9871682,-0.09801 -2.759089,0.268519 -5.3735541,1.442701 -7.4119989,3.328806 -0.309053,0.285966 -0.541504,0.489486 -0.8293325,0.726134 -0.6979179,0.573832 -1.033057,0.868555 -1.2909519,1.135273 -0.6402403,0.662143 -0.9492992,1.228882 -1.1538366,2.115851 -0.061196,0.265366 -0.113981,0.545631 -0.2520424,1.338143 -0.083264,0.478003 -0.1723356,0.86988 -0.2299097,1.011574 -0.025281,0.06224 -0.113512,0.233844 -0.1960633,0.381355 -0.2771433,0.495249 -0.3245084,0.623518 -0.3422458,0.926809 -0.011277,0.192674 0.010587,0.4467 0.067238,0.783194 0.092785,0.550607 0.1060836,0.690788 0.1224643,1.290488 0.0089,0.327955 0.02881,0.740477 0.044065,0.916694 0.1332431,1.536761 0.483868,2.975758 1.0354784,4.249719 0.11163,0.257813 0.4541958,0.959975 0.4899173,1.004197 0.012329,0.01532 0.066338,-10e-6 0.2046995,-0.05799 0.1033689,-0.04329 0.3492484,-0.139549 0.5464055,-0.213837 z m 1.0865336,-0.383716 c 0.1771699,-0.06033 0.3284845,-0.115121 0.3362498,-0.121783 0.00781,-0.0069 -0.03857,-0.108305 -0.1029975,-0.225822 -0.2383193,-0.434826 -0.5300674,-1.108667 -0.7122004,-1.644965 -0.4557611,-1.342024 -0.6543219,-2.656998 -0.6259728,-4.145521 0.032327,-1.696216 0.2865643,-3.109061 0.7866096,-4.370966 0.3932926,-0.992511 0.8882979,-1.765949 1.5927347,-2.48862 1.0769395,-1.104815 2.5689163,-1.994562 4.4944633,-2.68029 0.792177,-0.282127 1.48279,-0.448886 2.278382,-0.550189 0.418479,-0.05328 0.721442,-0.07197 1.495187,-0.0923 0.381805,-0.01 0.8223529,-0.0256 0.9789922,-0.03458 0.71734,-0.0416 1.237664,-0.01225 1.771085,0.09919 0.04071,0.0084 0.05886,-0.01283 0.213595,-0.252384 0.09301,-0.143953 0.171509,-0.267708 0.174455,-0.275073 0.0065,-0.01647 -0.49677,-0.138515 -0.868647,-0.210528 -0.815585,-0.157967 -1.4353033,-0.215114 -2.6699752,-0.246077 -1.309844,-0.03299 -1.500039,-0.02217 -2.140303,0.121476 -2.520657,0.565226 -4.8174559,2.020546 -6.4859838,4.10971 -1.4050024,1.759206 -2.2639485,3.85309 -2.4890438,6.067631 -0.015297,0.150558 -0.035547,0.49901 -0.044936,0.774293 -0.023129,0.677084 -0.029558,0.76217 -0.090423,1.203614 -0.078277,0.567597 -0.098927,0.886315 -0.073717,1.138394 0.049435,0.494347 0.2055236,0.88673 0.7155008,1.798584 0.1862811,0.333083 0.3037707,0.562798 0.4164761,0.814326 0.2377439,0.530577 0.6634572,1.321656 0.7112411,1.321656 0.00946,0 0.1620662,-0.04934 0.3392361,-0.109645 z M 7.5255168,5.725323 C 7.5208348,5.6008173 7.4107368,5.2460771 7.3173148,5.0545927 7.2320768,4.8798662 7.1987888,4.8323298 7.0730318,4.705761 6.9101538,4.5417715 6.7667738,4.453347 6.5660428,4.3930355 c -0.0715,-0.021536 -0.133127,-0.035769 -0.136958,-0.032212 -0.0038,0.00375 0.05301,0.053373 0.126313,0.1100544 0.298702,0.2310645 0.524527,0.6358538 0.584249,1.0472443 l 0.01212,0.083337 -0.08546,0.013421 C 6.9174798,5.6382892 6.6150028,5.6292393 6.4933658,5.5974008 6.2126258,5.524241 6.0201918,5.3536657 5.8709628,5.0456598 5.8228678,4.9464047 5.7390438,4.7730826 5.6846788,4.6604875 5.4930408,4.2636231 5.3232988,4.1284488 4.9338358,4.062488 l -0.0712,-0.01187 0.142401,-0.068511 c 0.327097,-0.1573411 0.695158,-0.2471077 1.012108,-0.2469204 0.472889,3.247e-4 0.818334,0.1308728 1.106512,0.4181637 0.212534,0.2119002 0.330361,0.4687962 0.390569,0.8516181 0.03511,0.2233863 0.05206,0.6094202 0.03056,0.6969674 -0.01411,0.057399 -0.01779,0.061956 -0.01929,0.023409 z m 1.074707,-0.984648 c 0.01237,-0.5551606 0.152662,-0.8574423 0.493889,-1.0641145 0.169558,-0.1027199 0.310185,-0.1414851 0.547766,-0.1510673 0.2923689,-0.01187 0.4947342,0.02934 0.7888932,0.1610859 l 0.124281,0.055588 -0.1292,0.031806 C 10.174229,3.8358351 10.090347,3.9247589 9.8826177,4.3498494 9.7549698,4.6110962 9.7203648,4.6668321 9.6423398,4.7369693 9.4904508,4.8735532 9.2749158,4.929986 9.0125118,4.9018632 c -0.113301,-0.012176 -0.118199,-0.014665 -0.118199,-0.060553 0,-0.083774 0.07141,-0.3093761 0.138127,-0.436329 0.0696,-0.1324658 0.201778,-0.2884017 0.315769,-0.3725688 l 0.0712,-0.052561 -0.0712,0.012789 c -0.121884,0.021537 -0.289637,0.1179824 -0.403348,0.2315641 -0.158331,0.1581835 -0.269671,0.4047142 -0.34186,0.7569511 -0.005,0.024657 -0.0062,-0.083649 -0.0028,-0.2403035 z M 8.1070898,3.10928 c 0.01327,-0.3459695 -0.04476,-0.5133518 -0.239889,-0.6916801 -0.05431,-0.049628 -0.10221,-0.086801 -0.106437,-0.082556 -0.0042,0.00437 0.01583,0.0466 0.04459,0.094198 0.09319,0.1541879 0.118882,0.260248 0.11885,0.49057 0,0.2504162 -0.0069,0.2627449 -0.129129,0.2309709 C 7.6533068,3.1137964 7.4937498,3.0263395 7.4275458,2.9489955 7.3405818,2.8473995 7.3109868,2.7483628 7.2831728,2.465851 7.2698458,2.3307329 7.2453998,2.1792908 7.2287918,2.1292668 7.1953508,2.0285136 7.0901158,1.9106248 6.9910888,1.8629012 l -0.06096,-0.02934 0.08637,-0.013114 c 0.116325,-0.017479 0.402508,0.00278 0.533935,0.037768 0.282477,0.075065 0.525751,0.2662097 0.636484,0.4999898 0.05556,0.1173276 0.05764,0.1297816 0.05599,0.3354697 -0.0014,0.1755387 -0.0099,0.2405532 -0.04775,0.3648937 -0.08968,0.2947063 -0.0976,0.2992323 -0.08806,0.050658 z"
       id="path918" />
  </g>
</svg>
